<?xml version="1.0" encoding="utf-8"?>
<!-- Generator: Adobe Illustrator 16.0.0, SVG Export Plug-In . SVG Version: 6.00 Build 0)  -->
<!DOCTYPE svg PUBLIC "-//W3C//DTD SVG 1.1//EN" "http://www.w3.org/Graphics/SVG/1.1/DTD/svg11.dtd">
<svg version="1.1" id="Camada_1" xmlns="http://www.w3.org/2000/svg" xmlns:xlink="http://www.w3.org/1999/xlink" x="0px" y="0px"
	 width="167px" height="201px" viewBox="0 0 167 201" enable-background="new 0 0 167 201" xml:space="preserve">
<g>
	<path d="M127.538,92.624l12.694,6.67c-4.164,8.175-8.973,14.774-14.429,19.793c-5.456,5.021-11.593,8.841-18.412,11.456
		c-6.821,2.618-14.538,3.927-23.15,3.927c-19.094,0-34.024-6.255-44.792-18.771c-10.768-12.515-16.151-26.66-16.151-42.438
		c0-14.845,4.557-28.077,13.674-39.695c11.556-14.773,27.025-22.161,46.407-22.161c19.955,0,35.889,7.567,47.805,22.699
		c8.47,10.687,12.775,24.025,12.921,40.018H38.789c0.286,13.595,4.631,24.739,13.032,33.432c8.401,8.693,18.777,13.04,31.128,13.04
		c5.958,0,11.756-1.035,17.393-3.106c5.636-2.071,10.429-4.824,14.379-8.253C118.67,105.805,122.942,100.269,127.538,92.624z
		 M127.538,61.104c-2.01-8.031-4.937-14.451-8.779-19.256c-3.842-4.804-8.922-8.677-15.239-11.618
		c-6.32-2.94-12.962-4.411-19.926-4.411c-11.49,0-21.363,3.695-29.62,11.08c-6.033,5.379-10.593,13.447-13.679,24.205H127.538z"/>
</g>
<g>
	<path d="M37.707,178.819l2.806,1.609c-0.92,1.972-1.983,3.564-3.189,4.774c-1.206,1.211-2.563,2.133-4.069,2.764
		c-1.508,0.631-3.213,0.946-5.117,0.946c-4.22,0-7.52-1.508-9.899-4.527c-2.38-3.019-3.57-6.431-3.57-10.237
		c0-3.58,1.007-6.771,3.022-9.574c2.554-3.563,5.973-5.346,10.257-5.346c4.411,0,7.933,1.825,10.566,5.475
		c1.872,2.578,2.824,5.796,2.856,9.653H18.091c0.063,3.279,1.024,5.968,2.88,8.064c1.857,2.098,4.15,3.146,6.88,3.146
		c1.317,0,2.599-0.25,3.844-0.75c1.246-0.499,2.305-1.162,3.178-1.99C35.747,181.999,36.691,180.664,37.707,178.819z
		 M37.707,171.217c-0.444-1.937-1.091-3.486-1.94-4.645c-0.85-1.159-1.972-2.093-3.369-2.803c-1.397-0.709-2.865-1.063-4.404-1.063
		c-2.54,0-4.722,0.891-6.547,2.673c-1.333,1.297-2.341,3.243-3.023,5.838H37.707z"/>
	<path d="M43.462,172.255H56.54v3.166H43.462V172.255z"/>
	<path d="M84.955,165.819l-2.64,1.791c-2.28-3.305-5.391-4.956-9.333-4.956c-3.15,0-5.767,1.106-7.849,3.317
		c-2.082,2.211-3.123,4.898-3.123,8.061c0,2.057,0.479,3.992,1.437,5.806c0.958,1.814,2.272,3.223,3.942,4.225
		c1.671,1.003,3.543,1.504,5.617,1.504c3.8,0,6.903-1.651,9.31-4.956l2.64,1.894c-1.236,2.032-2.897,3.609-4.981,4.729
		c-2.085,1.121-4.458,1.681-7.121,1.681c-4.09,0-7.482-1.417-10.176-4.255c-2.695-2.837-4.042-6.288-4.042-10.354
		c0-2.732,0.63-5.271,1.89-7.615c1.26-2.345,2.992-4.174,5.195-5.489c2.203-1.313,4.668-1.972,7.394-1.972
		c1.712,0,3.365,0.285,4.958,0.856c1.593,0.571,2.944,1.315,4.054,2.231C83.235,163.233,84.178,164.401,84.955,165.819z"/>
	<path d="M101.647,159.229c3.985,0,7.289,1.574,9.909,4.723c2.381,2.872,3.572,6.271,3.572,10.197c0,3.945-1.259,7.392-3.774,10.342
		c-2.518,2.949-5.754,4.423-9.707,4.423c-3.97,0-7.213-1.474-9.729-4.423c-2.518-2.95-3.775-6.396-3.775-10.342
		c0-3.909,1.19-7.299,3.573-10.171C94.335,160.812,97.646,159.229,101.647,159.229z M101.636,162.783
		c-2.768,0-5.146,1.116-7.135,3.348c-1.988,2.232-2.982,4.93-2.982,8.096c0,2.042,0.454,3.944,1.36,5.709s2.131,3.127,3.674,4.087
		c1.544,0.96,3.238,1.44,5.083,1.44s3.539-0.48,5.082-1.44s2.769-2.322,3.675-4.087s1.36-3.667,1.36-5.709
		c0-3.166-0.999-5.863-2.995-8.096C106.761,163.899,104.387,162.783,101.636,162.783z"/>
	<path d="M119.315,159.955h3.329v4.878c1.158-1.798,2.348-3.113,3.57-3.943c1.682-1.106,3.451-1.661,5.309-1.661
		c1.253,0,2.443,0.269,3.569,0.805c1.127,0.536,2.048,1.25,2.762,2.141c0.715,0.892,1.333,2.167,1.857,3.827
		c1.106-2.214,2.489-3.896,4.15-5.047c1.66-1.149,3.447-1.726,5.36-1.726c1.787,0,3.365,0.493,4.732,1.479
		c1.368,0.986,2.384,2.36,3.048,4.125c0.664,1.766,0.997,4.411,0.997,7.94v15.414h-3.4v-15.414c0-3.026-0.197-5.107-0.593-6.24
		c-0.395-1.133-1.07-2.046-2.026-2.737c-0.955-0.691-2.097-1.038-3.424-1.038c-1.611,0-3.085,0.52-4.42,1.557
		c-1.335,1.038-2.311,2.422-2.927,4.152c-0.615,1.729-0.924,4.619-0.924,8.666v11.055h-3.329v-14.453
		c0-3.408-0.194-5.723-0.582-6.941c-0.389-1.22-1.066-2.196-2.033-2.933c-0.967-0.734-2.115-1.103-3.448-1.103
		c-1.536,0-2.976,0.506-4.315,1.518c-1.339,1.013-2.329,2.375-2.971,4.088c-0.643,1.712-0.963,4.332-0.963,7.862v11.962h-3.329
		V159.955z"/>
</g>
<rect x="9.698" y="61.104" width="70.257" height="11.833"/>
</svg>
