<?xml version="1.0" encoding="UTF-8"?>
<!DOCTYPE svg PUBLIC "-//W3C//DTD SVG 1.1//EN" "http://www.w3.org/Graphics/SVG/1.1/DTD/svg11.dtd">
<!-- Creator: CorelDRAW 2021 (64-Bit) -->
<svg xmlns="http://www.w3.org/2000/svg" xml:space="preserve" width="68.7438mm" height="25.793mm" version="1.1" style="shape-rendering:geometricPrecision; text-rendering:geometricPrecision; image-rendering:optimizeQuality; fill-rule:evenodd; clip-rule:evenodd"
viewBox="0 0 5616.89 2107.48"
 xmlns:xlink="http://www.w3.org/1999/xlink"
 xmlns:xodm="http://www.corel.com/coreldraw/odm/2003">
 <defs>
  <style type="text/css">
   <![CDATA[
    .fil0 {fill:red}
    .fil1 {fill:white}
    .fil2 {fill:#003399;fill-rule:nonzero}
    .fil3 {fill:white;fill-rule:nonzero}
   ]]>
  </style>
 </defs>
 <g id="Camada_x0020_1">
  <metadata id="CorelCorpID_0Corel-Layer"/>
  <path class="fil0" d="M3786.03 173.44l1515.97 0c130.74,0 237.7,107.16 237.7,237.7l0 889.38c0,130.54 -107.16,237.71 -237.7,237.71l-85.05 0 147.74 378.44 -767 -378.44 -811.65 0c-130.54,0 -237.71,-106.96 -237.71,-237.71l0 -889.38c0,-130.74 106.96,-237.7 237.71,-237.7z"/>
  <path class="fil1" d="M3677.27 77.18l-3362.38 0c-130.66,0 -237.71,107.14 -237.71,237.71l0 1099.39c0,130.63 107.06,237.71 237.71,237.71l85.05 0 -147.74 378.44 767 -378.44 2658.07 0c130.65,0 237.71,-106.96 237.71,-237.71l0 -1099.39c0,-130.75 -107.13,-237.71 -237.71,-237.71z"/>
  <path class="fil2" d="M3677.27 154.36l-3362.38 0c-44,0 -84.13,18.12 -113.25,47.26 -29.16,29.15 -47.28,69.28 -47.28,113.27l0 1099.39c0,44.01 18.11,84.13 47.26,113.27 29.14,29.14 69.26,47.25 113.27,47.25l85.05 0c42.62,0 77.18,34.56 77.18,77.19 0,11.68 -2.6,22.75 -7.25,32.68l-73.74 188.89 589 -290.61c10.97,-5.42 22.6,-7.97 34.06,-7.96l0 -0.2 2658.07 0c44.04,0 84.17,-18.09 113.3,-47.24 29.13,-29.12 47.23,-69.23 47.23,-113.29l0 -1099.39c0,-44.04 -18.11,-84.14 -47.24,-113.27 -29.15,-29.15 -69.28,-47.26 -113.29,-47.26zm-3362.38 -154.36l3362.38 0c86.6,0 165.38,35.42 222.43,92.48 57.02,57.02 92.46,135.75 92.46,222.42l0 1099.39c0,86.67 -35.42,165.41 -92.45,222.43 -57.03,57.03 -135.81,92.46 -222.44,92.46l-2640.51 0 -748.17 369.14c-19.18,10.28 -42.57,12.4 -64.43,3.86 -39.63,-15.48 -59.2,-60.16 -43.71,-99.79l107.13 -274.41c-75.8,-6.58 -144.13,-40.31 -195.1,-91.29 -57.03,-57.03 -92.48,-135.79 -92.48,-222.41l0 -1099.39c0,-86.59 35.44,-165.37 92.49,-222.42 57.03,-57.02 135.77,-92.48 222.4,-92.48z"/>
  <path class="fil2" d="M1301.93 594.29l0 173.87c0,24.67 -4.11,45.63 -12.33,62.89 32.06,33.7 48.09,72.75 48.09,117.14l0 191.13c0,47.68 -16.86,88.16 -50.56,121.46 -33.7,33.3 -74.39,49.94 -122.07,49.94l-715.19 0 0 -887.83 680.66 0c46.86,0 87.14,16.65 120.85,49.94 33.7,33.3 50.55,73.78 50.55,121.46zm-171.4 -8.63l-509.27 0c-5.75,0 -8.63,2.88 -8.63,8.63l0 173.87c0,5.76 2.88,8.64 8.63,8.64l509.27 0c4.94,0 7.4,-2.88 7.4,-8.64l0 -173.87c0,-5.75 -2.47,-8.63 -7.4,-8.63zm43.16 553.66l0 -191.13c0,-4.94 -2.88,-7.4 -8.63,-7.4l-543.8 0c-5.75,0 -8.63,2.47 -8.63,7.4l0 191.13c0,5.75 2.88,8.63 8.63,8.63l543.8 0c5.75,0 8.63,-2.88 8.63,-8.63zm1120.95 -545.03l0 67.83 -164 0 0 -67.83c0,-5.75 -2.47,-8.63 -7.4,-8.63l-545.02 0c-5.75,0 -8.64,2.88 -8.64,8.63l0 182.5c0,5.75 2.88,8.63 8.64,8.63l545.02 0c46.86,0 87.14,16.65 120.85,49.94 33.7,33.3 50.55,73.78 50.55,121.46l0 182.5c0,47.68 -16.85,88.16 -50.55,121.46 -33.7,33.3 -73.99,49.94 -120.85,49.94l-545.02 0c-47.68,0 -88.17,-16.64 -121.46,-49.94 -33.3,-33.3 -49.94,-73.78 -49.94,-121.46l0 -67.83 162.76 0 0 67.83c0,5.75 2.88,8.63 8.64,8.63l545.02 0c4.94,0 7.4,-2.88 7.4,-8.63l0 -182.5c0,-5.75 -2.47,-8.63 -7.4,-8.63l-545.02 0c-47.68,0 -88.17,-16.64 -121.46,-49.94 -33.3,-33.3 -49.94,-73.78 -49.94,-121.46l0 -182.5c0,-47.68 16.64,-88.16 49.94,-121.46 33.29,-33.29 73.77,-49.94 121.46,-49.94l545.02 0c46.86,0 87.14,16.65 120.85,49.94 33.7,33.3 50.55,73.78 50.55,121.46zm928.59 0l0 173.87c0,24.67 -4.11,45.63 -12.33,62.89 32.06,33.7 48.09,72.75 48.09,117.14l0 191.13c0,47.68 -16.86,88.16 -50.56,121.46 -33.7,33.3 -74.39,49.94 -122.07,49.94l-715.19 0 0 -887.83 680.66 0c46.86,0 87.14,16.65 120.85,49.94 33.7,33.3 50.55,73.78 50.55,121.46zm-171.4 -8.63l-509.27 0c-5.75,0 -8.63,2.88 -8.63,8.63l0 173.87c0,5.76 2.88,8.64 8.63,8.64l509.27 0c4.94,0 7.4,-2.88 7.4,-8.64l0 -173.87c0,-5.75 -2.47,-8.63 -7.4,-8.63zm43.16 553.66l0 -191.13c0,-4.94 -2.88,-7.4 -8.63,-7.4l-543.8 0c-5.75,0 -8.63,2.47 -8.63,7.4l0 191.13c0,5.75 2.88,8.63 8.63,8.63l543.8 0c5.75,0 8.63,-2.88 8.63,-8.63z"/>
  <path class="fil0" d="M3786.03 173.44l1515.97 0c130.74,0 237.7,107.16 237.7,237.7l0 889.38c0,130.54 -107.16,237.71 -237.7,237.71l-85.05 0 147.74 378.44 -767 -378.44 -811.65 0c-130.54,0 -237.71,-106.96 -237.71,-237.71l0 -889.38c0,-130.74 106.96,-237.7 237.71,-237.7z"/>
  <path class="fil3" d="M4724.59 584.06l0 69.06 -164.01 0 0 -69.06c0,-5.75 -2.88,-8.63 -8.64,-8.63l-543.81 0c-5.75,0 -8.64,2.88 -8.64,8.63l0 545.05c0,5.74 2.88,8.63 8.64,8.63l543.81 0c5.76,0 8.64,-2.88 8.64,-8.63l0 -167.71 -201.01 0 0 -162.77 365.02 0 0 330.48c0,47.68 -16.86,88.16 -50.57,121.46 -33.7,33.3 -74.39,49.94 -122.08,49.94l-543.81 0c-47.68,0 -88.17,-16.64 -121.47,-49.94 -33.29,-33.3 -49.94,-73.78 -49.94,-121.46l0 -545.05c0,-47.68 16.65,-88.16 49.94,-121.46 33.3,-33.3 73.79,-49.94 121.47,-49.94l543.81 0c47.68,0 88.37,16.64 122.08,49.94 33.71,33.3 50.57,73.77 50.57,121.46zm293.55 -9.86l-179.37 0 0 -161.54 179.37 0 14.04 0 57.06 0 90.43 0 0 161.54 0 726.31 -161.54 0 0 -503.71 0 -148.62 0 -73.99z"/>
  <path class="fil2" d="M3786.03 96.26l1515.97 0c86.66,0 165.38,35.44 222.4,92.46 57.06,57.06 92.48,135.84 92.48,222.42l0 889.38c0,86.58 -35.48,165.34 -92.51,222.38 -50.99,50.99 -119.31,84.74 -195.07,91.32l107.13 274.41c15.48,39.63 -4.09,84.31 -43.71,99.79 -21.86,8.54 -45.25,6.41 -64.43,-3.86l-748.16 -369.14 -794.1 0c-86.59,0 -165.38,-35.44 -222.43,-92.48 -57.02,-57.02 -92.46,-135.75 -92.46,-222.41l0 -889.38c0,-86.67 35.4,-165.42 92.44,-222.45 57.02,-57.02 135.78,-92.44 222.46,-92.44zm1515.97 154.36l-1515.97 0c-44.07,0 -84.19,18.09 -113.32,47.21 -29.12,29.13 -47.21,69.26 -47.21,113.31l0 889.38c0,44.04 18.11,84.13 47.24,113.26 29.15,29.15 69.29,47.27 113.29,47.27l811.65 0 0 0.19c11.46,-0.02 23.09,2.54 34.06,7.96l589.01 290.61 -73.75 -188.89c-4.64,-9.94 -7.24,-21.01 -7.24,-32.68 0,-42.63 34.55,-77.18 77.18,-77.18l85.05 0c43.96,0 84.08,-18.14 113.23,-47.29 29.15,-29.15 47.29,-69.27 47.29,-113.24l0 -889.38c0,-44 -18.11,-84.13 -47.26,-113.29 -29.14,-29.13 -69.23,-47.24 -113.26,-47.24z"/>
 </g>
</svg>
