<?xml version="1.0" encoding="UTF-8"?>
<!DOCTYPE svg PUBLIC "-//W3C//DTD SVG 1.1//EN" "http://www.w3.org/Graphics/SVG/1.1/DTD/svg11.dtd">
<!-- Creator: CorelDRAW -->
<svg xmlns="http://www.w3.org/2000/svg" xml:space="preserve" width="803px" height="301px" version="1.1" style="shape-rendering:geometricPrecision; text-rendering:geometricPrecision; image-rendering:optimizeQuality; fill-rule:evenodd; clip-rule:evenodd"
viewBox="0 0 794.43 298.08"
 xmlns:xlink="http://www.w3.org/1999/xlink"
 xmlns:xodm="http://www.corel.com/coreldraw/odm/2003">
 <defs>
  <style type="text/css">
   <![CDATA[
    .fil0 {fill:#FEFEFE;fill-rule:nonzero}
   ]]>
  </style>
 </defs>
 <g id="Camada_x0020_1">
  <metadata id="CorelCorpID_0Corel-Layer"/>
  <path class="fil0" d="M520.1 21.83l-475.56 0c-6.23,0 -11.9,2.57 -16.02,6.69 -4.13,4.12 -6.69,9.8 -6.69,16.02l0 155.49c0,6.23 2.56,11.9 6.69,16.02 4.12,4.13 9.79,6.69 16.02,6.69l12.03 0c6.02,0 10.91,4.89 10.91,10.91 0,1.66 -0.36,3.22 -1.02,4.63l-10.43 26.71 83.3 -41.1c1.56,-0.77 3.2,-1.13 4.82,-1.13l0 -0.02 375.95 0c5.44,0 10.45,-1.95 14.38,-5.19 0.34,0.01 0.67,0.01 1.01,0.01l25.54 0c-2.26,5.24 -5.49,9.96 -9.47,13.93 -8.06,8.07 -19.2,13.08 -31.46,13.08l-373.46 0 -105.82 52.21c-2.72,1.45 -6.02,1.76 -9.12,0.55 -5.6,-2.19 -8.37,-8.51 -6.18,-14.12l15.15 -38.81c-10.72,-0.93 -20.38,-5.7 -27.59,-12.91 -8.07,-8.07 -13.08,-19.21 -13.08,-31.46l0 -155.49c0,-12.25 5.01,-23.39 13.08,-31.46 8.07,-8.07 19.21,-13.08 31.46,-13.08l0 0 475.56 0c12.25,0 23.39,5.01 31.46,13.08 3.34,3.34 6.15,7.2 8.31,11.45l-24.39 0 0.01 0c-1.44,0 -2.85,0.09 -4.23,0.27 -3.31,-1.89 -7.12,-2.97 -11.16,-2.97l0 0z"/>
  <path class="fil0" d="M184.14 84.06l0 24.59c0,3.49 -0.58,6.45 -1.74,8.89 4.53,4.77 6.8,10.29 6.8,16.57l0 27.03c0,6.75 -2.38,12.47 -7.15,17.18 -4.77,4.71 -10.52,7.07 -17.27,7.07l-101.15 0 0 -125.58 96.27 0c6.63,0 12.32,2.36 17.09,7.07 4.77,4.71 7.15,10.43 7.15,17.18l0 0zm-24.24 -1.22l-72.03 0c-0.81,0 -1.22,0.4 -1.22,1.22l0 24.59c0,0.81 0.41,1.22 1.22,1.22l72.03 0c0.7,0 1.05,-0.41 1.05,-1.22l0 -24.59c0,-0.82 -0.35,-1.22 -1.05,-1.22zm6.1 78.3l0 -27.03c0,-0.7 -0.4,-1.05 -1.22,-1.05l-76.91 0c-0.81,0 -1.22,0.35 -1.22,1.05l0 27.03c0,0.82 0.41,1.22 1.22,1.22l76.91 0c0.82,0 1.22,-0.4 1.22,-1.22zm158.55 -77.08l0 9.59 -23.2 0 0 -9.59c0,-0.82 -0.35,-1.22 -1.05,-1.22l-77.08 0c-0.82,0 -1.22,0.4 -1.22,1.22l0 25.81c0,0.81 0.4,1.22 1.22,1.22l77.08 0c6.63,0 12.33,2.35 17.1,7.06 4.76,4.71 7.15,10.44 7.15,17.18l0 25.81c0,6.75 -2.39,12.47 -7.15,17.18 -4.77,4.71 -10.47,7.07 -17.1,7.07l-77.08 0c-6.75,0 -12.47,-2.36 -17.18,-7.07 -4.71,-4.71 -7.06,-10.43 -7.06,-17.18l0 -9.59 23.02 0 0 9.59c0,0.82 0.4,1.22 1.22,1.22l77.08 0c0.7,0 1.05,-0.4 1.05,-1.22l0 -25.81c0,-0.81 -0.35,-1.22 -1.05,-1.22l-77.08 0c-6.75,0 -12.47,-2.35 -17.18,-7.06 -4.71,-4.71 -7.06,-10.44 -7.06,-17.18l0 -25.81c0,-6.75 2.35,-12.47 7.06,-17.18 4.71,-4.71 10.43,-7.07 17.18,-7.07l77.08 0c6.63,0 12.33,2.36 17.1,7.07 4.76,4.71 7.15,10.43 7.15,17.18zm131.33 0l0 24.59c0,3.49 -0.58,6.45 -1.74,8.89 4.54,4.77 6.8,10.29 6.8,16.57l0 27.03c0,6.75 -2.38,12.47 -7.15,17.18 -4.76,4.71 -10.52,7.07 -17.26,7.07l-101.16 0 0 -125.58 96.27 0c6.63,0 12.33,2.36 17.1,7.07 4.76,4.71 7.15,10.43 7.15,17.18l-0.01 0zm-24.24 -1.22l-72.03 0c-0.81,0 -1.22,0.4 -1.22,1.22l0 24.59c0,0.81 0.41,1.22 1.22,1.22l72.03 0c0.7,0 1.05,-0.41 1.05,-1.22l0 -24.59c0,-0.82 -0.35,-1.22 -1.05,-1.22zm6.11 78.3l0 -27.03c0,-0.7 -0.41,-1.05 -1.22,-1.05l-76.92 0c-0.81,0 -1.22,0.35 -1.22,1.05l0 27.03c0,0.82 0.41,1.22 1.22,1.22l76.92 0c0.81,0 1.22,-0.4 1.22,-1.22z"/>
  <path class="fil0" d="M668.23 82.61l0 9.77 -23.2 0 0 -9.77c0,-0.81 -0.4,-1.22 -1.22,-1.22l-76.91 0c-0.82,0 -1.23,0.41 -1.23,1.22l0 77.09c0,0.81 0.41,1.22 1.23,1.22l76.91 0c0.82,0 1.22,-0.41 1.22,-1.22l0 -23.72 -28.43 0 0 -23.02 51.63 0 0 46.74c0,6.74 -2.38,12.47 -7.15,17.18 -4.77,4.71 -10.52,7.06 -17.27,7.06l-76.91 0c-6.75,0 -12.47,-2.35 -17.18,-7.06 -4.71,-4.71 -7.07,-10.44 -7.07,-17.18l0 -77.09c0,-6.74 2.36,-12.47 7.07,-17.18 4.71,-4.71 10.43,-7.06 17.18,-7.06l76.91 0c6.75,0 12.5,2.35 17.27,7.06 4.77,4.71 7.15,10.43 7.15,17.18zm41.52 -1.4l-25.37 0 0 -22.84 25.37 0 1.98 0 8.08 0 12.79 0 0 22.84 0 102.73 -22.85 0 0 -71.24 0 -21.02 0 -10.47 0 0z"/>
  <path class="fil0" d="M535.48 13.62l214.42 0c12.25,0 23.39,5.01 31.45,13.07 8.07,8.07 13.08,19.22 13.08,31.46l0 125.79c0,12.25 -5.02,23.39 -13.08,31.46 -7.21,7.21 -16.88,11.98 -27.59,12.91l15.15 38.81c2.19,5.61 -0.58,11.93 -6.18,14.12 -3.09,1.2 -6.4,0.9 -9.11,-0.55l-105.82 -52.21 -112.32 0c-12.24,0 -23.39,-5.01 -31.46,-13.08 -8.06,-8.06 -13.07,-19.2 -13.07,-31.46l0 -125.79c0,-12.26 5,-23.39 13.07,-31.46 8.07,-8.06 19.2,-13.07 31.46,-13.07zm214.42 21.83l-214.42 0c-6.23,0 -11.9,2.56 -16.02,6.68 -4.12,4.12 -6.68,9.79 -6.68,16.02l0 125.79c0,6.23 2.56,11.9 6.68,16.02 4.12,4.13 9.8,6.69 16.02,6.69l114.8 0 0 0.03c1.62,-0.01 3.27,0.35 4.82,1.12l83.31 41.1 -10.43 -26.71c-0.66,-1.41 -1.03,-2.97 -1.03,-4.63 0,-6.02 4.89,-10.91 10.92,-10.91l12.03 0c6.22,0 11.89,-2.57 16.01,-6.69 4.13,-4.12 6.69,-9.8 6.69,-16.02l0 -125.79c0,-6.22 -2.56,-11.9 -6.68,-16.02 -4.12,-4.12 -9.79,-6.68 -16.02,-6.68l0 0z"/>
 </g>
</svg>
