<?xml version="1.0" encoding="utf-8"?>
<!-- Generator: Adobe Illustrator 16.0.0, SVG Export Plug-In . SVG Version: 6.00 Build 0)  -->
<!DOCTYPE svg PUBLIC "-//W3C//DTD SVG 1.1//EN" "http://www.w3.org/Graphics/SVG/1.1/DTD/svg11.dtd">
<svg version="1.1" id="Camada_1" xmlns="http://www.w3.org/2000/svg" xmlns:xlink="http://www.w3.org/1999/xlink" x="0px" y="0px"
	 width="177.334px" height="219px" viewBox="0 0 177.334 219" enable-background="new 0 0 177.334 219" xml:space="preserve">
<g>
	<path fill="#FAFAFA" d="M138.202,102.647l14.34,7.535c-4.703,9.234-10.136,16.689-16.299,22.359
		c-6.164,5.672-13.096,9.986-20.8,12.941c-7.705,2.957-16.422,4.436-26.151,4.436c-21.57,0-38.435-7.066-50.598-21.205
		c-12.164-14.137-18.246-30.116-18.246-47.94c0-16.77,5.147-31.717,15.447-44.841c13.054-16.688,30.528-25.033,52.423-25.033
		c22.542,0,40.542,8.548,54.003,25.641c9.567,12.072,14.432,27.141,14.596,45.206H37.947c0.323,15.357,5.231,27.946,14.721,37.767
		c9.49,9.82,21.211,14.73,35.164,14.73c6.731,0,13.28-1.17,19.648-3.51c6.366-2.34,11.78-5.449,16.242-9.322
		S133.011,111.283,138.202,102.647z M138.202,67.041c-2.271-9.072-5.576-16.324-9.917-21.752
		c-4.341-5.427-10.079-9.802-17.216-13.125c-7.14-3.321-14.642-4.982-22.509-4.982c-12.979,0-24.133,4.174-33.459,12.517
		c-6.815,6.076-11.966,15.19-15.452,27.342H138.202z"/>
</g>
<g>
	<path fill="#FAFAFA" d="M36.725,200.018l3.169,1.817c-1.04,2.228-2.24,4.026-3.603,5.394c-1.362,1.368-2.895,2.409-4.597,3.122
		c-1.703,0.713-3.63,1.069-5.78,1.069c-4.767,0-8.495-1.704-11.183-5.114s-4.033-7.265-4.033-11.564
		c0-4.045,1.138-7.65,3.414-10.816c2.885-4.025,6.748-6.038,11.586-6.038c4.982,0,8.961,2.062,11.936,6.185
		c2.115,2.912,3.19,6.547,3.226,10.904H14.566c0.071,3.705,1.156,6.741,3.253,9.11c2.098,2.369,4.688,3.553,7.772,3.553
		c1.488,0,2.936-0.282,4.343-0.847s2.604-1.313,3.59-2.248C34.51,203.609,35.577,202.101,36.725,200.018z M36.725,191.429
		c-0.502-2.188-1.232-3.938-2.192-5.246c-0.959-1.31-2.228-2.364-3.805-3.166c-1.578-0.801-3.236-1.202-4.975-1.202
		c-2.869,0-5.334,1.007-7.396,3.02c-1.506,1.466-2.645,3.664-3.415,6.595H36.725z"/>
	<path fill="#FAFAFA" d="M43.227,192.602H58v3.576H43.227V192.602z"/>
	<path fill="#FAFAFA" d="M90.099,185.332l-2.982,2.022c-2.575-3.732-6.09-5.599-10.543-5.599c-3.559,0-6.515,1.25-8.866,3.748
		c-2.352,2.498-3.528,5.533-3.528,9.105c0,2.323,0.541,4.51,1.623,6.559c1.082,2.05,2.567,3.641,4.454,4.772
		c1.887,1.133,4.002,1.698,6.345,1.698c4.292,0,7.798-1.865,10.517-5.599l2.982,2.14c-1.397,2.296-3.273,4.077-5.627,5.342
		c-2.355,1.266-5.036,1.898-8.044,1.898c-4.62,0-8.452-1.602-11.496-4.807c-3.044-3.205-4.566-7.104-4.566-11.696
		c0-3.087,0.711-5.955,2.135-8.603c1.423-2.648,3.379-4.715,5.869-6.2c2.489-1.484,5.273-2.228,8.353-2.228
		c1.934,0,3.801,0.322,5.6,0.968c1.8,0.645,3.326,1.485,4.58,2.521C88.155,182.411,89.221,183.73,90.099,185.332z"/>
	<path fill="#FAFAFA" d="M108.955,177.887c4.502,0,8.233,1.778,11.193,5.335c2.69,3.244,4.036,7.084,4.036,11.52
		c0,4.456-1.422,8.35-4.265,11.682c-2.844,3.332-6.499,4.997-10.965,4.997c-4.484,0-8.148-1.665-10.991-4.997
		c-2.844-3.332-4.265-7.226-4.265-11.682c0-4.416,1.345-8.246,4.036-11.49C100.694,179.675,104.435,177.887,108.955,177.887z
		 M108.941,181.902c-3.126,0-5.813,1.261-8.06,3.781c-2.246,2.521-3.369,5.569-3.369,9.146c0,2.307,0.513,4.456,1.537,6.449
		c1.023,1.993,2.407,3.532,4.15,4.616c1.743,1.085,3.657,1.627,5.741,1.627s3.998-0.542,5.741-1.627
		c1.743-1.084,3.127-2.623,4.151-4.616c1.023-1.993,1.536-4.143,1.536-6.449c0-3.576-1.128-6.624-3.383-9.146
		C114.731,183.163,112.05,181.902,108.941,181.902z"/>
	<path fill="#FAFAFA" d="M128.913,178.707h3.761v5.511c1.309-2.031,2.652-3.517,4.033-4.455c1.9-1.25,3.899-1.876,5.997-1.876
		c1.415,0,2.76,0.303,4.032,0.909c1.273,0.605,2.313,1.411,3.12,2.418s1.506,2.447,2.098,4.323c1.25-2.501,2.813-4.401,4.688-5.701
		c1.876-1.299,3.895-1.949,6.056-1.949c2.019,0,3.801,0.557,5.346,1.671c1.546,1.114,2.693,2.667,3.443,4.66
		c0.75,1.994,1.126,4.983,1.126,8.97V210.6h-3.841v-17.412c0-3.419-0.224-5.77-0.67-7.049c-0.446-1.28-1.209-2.312-2.289-3.093
		c-1.079-0.781-2.369-1.173-3.868-1.173c-1.82,0-3.484,0.587-4.992,1.759c-1.509,1.173-2.61,2.736-3.307,4.69
		c-0.695,1.954-1.044,5.218-1.044,9.79V210.6h-3.76v-16.327c0-3.85-0.22-6.464-0.658-7.841c-0.439-1.378-1.204-2.481-2.297-3.313
		c-1.092-0.83-2.39-1.246-3.895-1.246c-1.736,0-3.361,0.572-4.875,1.715c-1.513,1.144-2.632,2.683-3.356,4.617
		c-0.726,1.935-1.088,4.895-1.088,8.882V210.6h-3.761V178.707z"/>
</g>
<rect x="5.084" y="67.041" fill="#FAFAFA" width="79.365" height="13.367"/>
</svg>
