<?xml version="1.0" encoding="utf-8"?>
<!-- Generator: Adobe Illustrator 25.4.1, SVG Export Plug-In . SVG Version: 6.00 Build 0)  -->
<svg version="1.1" id="Camada_1" xmlns="http://www.w3.org/2000/svg" xmlns:xlink="http://www.w3.org/1999/xlink" x="0px" y="0px"
	 viewBox="0 0 52.7 52.1" style="enable-background:new 0 0 52.7 52.1;" xml:space="preserve">
<style type="text/css">
	.st0{fill:orange;}
	.st1{opacity:0.8;}
	.st2{fill:#1A171B;}
</style>
<rect y="0.1" class="st0" width="52.9" height="52"/>
<g class="st1">
	<g>
		<path class="st2" d="M24,36.4c-1.4,1.4-3.2,2.2-5.2,2.2c-2.1,0-3.8-0.7-5.2-2.2l-1.3,1.3c1.8,1.8,4,2.7,6.5,2.7
			c2.6,0,4.7-0.9,6.5-2.7c0.2-0.2,0.4-0.4,0.6-0.7l-1.3-1.3C24.4,36,24.2,36.2,24,36.4z"/>
		<circle class="st2" cx="18.7" cy="24" r="1.6"/>
		<g>
			<path class="st2" d="M18.7,14.7c-5.1,0-9.3,4.2-9.3,9.3c0,5.1,4.2,9.3,9.3,9.3c5.1,0,9.3-4.2,9.3-9.3
				C28,18.9,23.8,14.7,18.7,14.7z M18.7,31.5c-4.1,0-7.5-3.3-7.5-7.5s3.3-7.5,7.5-7.5c4.1,0,7.5,3.3,7.5,7.5
				C26.2,28.1,22.8,31.5,18.7,31.5z"/>
		</g>
	</g>
	<g>
		<path class="st2" d="M35.5,26.6c0.9,0,1.6,0.7,1.6,1.6c0,0.9-0.7,1.6-1.6,1.6c-0.9,0-1.6-0.7-1.6-1.6
			C33.9,27.3,34.6,26.6,35.5,26.6z"/>
		<g>
			<path class="st2" d="M35.5,18.9c-5.1,0-9.3,4.2-9.3,9.3c0,5.1,4.2,9.3,9.3,9.3s9.3-4.2,9.3-9.3C44.8,23.1,40.6,18.9,35.5,18.9z
				 M35.5,35.7c-4.1,0-7.5-3.3-7.5-7.5c0-4.1,3.3-7.5,7.5-7.5c4.1,0,7.5,3.3,7.5,7.5C43,32.3,39.6,35.7,35.5,35.7z"/>
		</g>
		<polygon class="st2" points="26.2,11.5 26.2,28.5 28,28.7 28,13.4 		"/>
	</g>
</g>
</svg>
