<?xml version="1.0" encoding="utf-8"?>
<!-- Generator: Adobe Illustrator 25.2.3, SVG Export Plug-In . SVG Version: 6.00 Build 0)  -->
<svg version="1.1" id="Camada_1" xmlns="http://www.w3.org/2000/svg" xmlns:xlink="http://www.w3.org/1999/xlink" x="0px" y="0px"
	 viewBox="0 0 412.1 100.6" style="enable-background:new 0 0 412.1 100.6;" xml:space="preserve">
<style type="text/css">
	.st0{clip-path:url(#SVGID_2_);fill:url(#SVGID_3_);}
	.st1{clip-path:url(#SVGID_5_);fill:url(#SVGID_6_);}
	.st2{clip-path:url(#SVGID_8_);fill:url(#SVGID_9_);}
	.st3{clip-path:url(#SVGID_11_);fill:url(#SVGID_12_);}
	.st4{clip-path:url(#SVGID_14_);fill:url(#SVGID_15_);}
	.st5{clip-path:url(#SVGID_17_);fill:url(#SVGID_18_);}
	.st6{clip-path:url(#SVGID_20_);fill:url(#SVGID_21_);}
	.st7{clip-path:url(#SVGID_23_);fill:url(#SVGID_24_);}
	.st8{clip-path:url(#SVGID_26_);fill:url(#SVGID_27_);}
	.st9{clip-path:url(#SVGID_29_);fill:url(#SVGID_30_);}
	.st10{clip-path:url(#SVGID_32_);fill:url(#SVGID_33_);}
	.st11{clip-path:url(#SVGID_35_);fill:url(#SVGID_36_);}
</style>
<g>
	<g>
		<g>
			<defs>
				<path id="SVGID_1_" d="M388.7,52.2c0.4-1.6,1.1-3,2.4-3.9c2.2-1.5,5.4-0.7,6.6,1.7c0.4,0.7,0.6,1.4,0.8,2.2
					c0.1,0.3,0,0.5-0.4,0.5c-1.5,0-3,0-4.5,0c-1.5,0-3,0-4.5,0c0,0,0,0,0,0C388.7,52.7,388.6,52.6,388.7,52.2 M390.6,40
					c-3.6,0.7-6.5,2.4-8.7,5.2c-2.3,2.9-3.2,6.2-3.3,9.9c0,1.5,0.2,3.1,0.6,4.6c0.6,2.2,1.5,4.1,3,5.8c1.4,1.6,3.2,2.9,5.2,3.7
					c1.8,0.8,3.7,1.2,5.6,1.3c1.7,0.1,3.4,0.1,5.1-0.3c1.5-0.3,3-0.8,4.4-1.5c1.1-0.6,2-1.3,3-2.1c0.6-0.5,1.2-1.2,1.7-1.8
					c0.2-0.2,0.2-0.4-0.1-0.6c-0.3-0.2-0.5-0.4-0.7-0.6c-1.4-1.2-2.8-2.4-4.3-3.5c-0.6-0.5-0.6-0.5-1.2,0.1c-2,1.8-4.2,2.8-6.9,2.4
					c-2.5-0.3-4.2-1.7-5-4c-0.2-0.6-0.2-0.6,0.4-0.6c6.1,0,12.2,0,18.3,0c0.2,0,0.5,0,0.7,0v-3.8c0-0.1,0-0.1,0-0.2
					c-0.1-1.7-0.5-3.4-1.1-5.1c-0.9-2.4-2.2-4.5-4.2-6.1c-2.5-2-5.4-2.9-8.6-3.1c-0.3,0-0.6,0-0.9,0C392.6,39.8,391.6,39.9,390.6,40
					"/>
			</defs>
			<clipPath id="SVGID_2_">
				<use xlink:href="#SVGID_1_"  style="overflow:visible;"/>
			</clipPath>
			
				<linearGradient id="SVGID_3_" gradientUnits="userSpaceOnUse" x1="-2224.2568" y1="169.8851" x2="-2224.146" y2="169.8851" gradientTransform="matrix(2582.9087 -575.9796 575.9796 2582.9087 5647326 -1719808.875)">
				<stop  offset="0" style="stop-color:#FFAB00"/>
				<stop  offset="0.5223" style="stop-color:#FFA200"/>
				<stop  offset="1" style="stop-color:#FF7901"/>
			</linearGradient>
			<polygon class="st0" points="372,41.2 407,33.4 415,69.2 380,77 			"/>
		</g>
	</g>
	<g>
		<g>
			<defs>
				<path id="SVGID_4_" d="M115.4,31.8c-2.5,0-4.9,0-7.4,0c-0.9,0-1.8,0-2.7,0c-0.6,0-0.6,0-0.6,0.6c0,12.3,0,24.6,0,36.9
					c0,0.6,0,0.6,0.6,0.6c3.1,0,6.1,0,9.2,0c0.7,0,0.7,0,0.7-0.7c0-6.7,0-13.5,0-20.2v-0.5c0.6,0.7,1,1.4,1.5,2.2
					c2.6,3.9,5.2,7.9,7.8,11.8c0.4,0.6,0.5,0.6,0.9,0c1.5-2.3,3-4.6,4.6-7c1.5-2.4,3.1-4.7,4.6-7.1l0.1,0v0.5c0,6.7,0,13.5,0,20.2
					c0,0.6,0,0.6,0.6,0.6c0.9,0,1.7,0,2.6,0c2.3,0,4.6,0,6.9,0c0.4,0,0.6-0.1,0.5-0.5c0-0.1,0-0.2,0-0.3c0-12.1,0-24.3,0-36.4
					c0-0.1,0-0.3,0-0.4c0-0.3-0.1-0.4-0.4-0.4c-3.5,0-7,0-10.5,0c-0.3,0-0.4,0.1-0.6,0.3c-0.3,0.5-0.6,1-0.9,1.5
					c-1.5,2.4-3,4.9-4.5,7.3c-1,1.7-2.1,3.4-3.1,5c-0.2,0.3-0.3,0.3-0.5,0c-1-1.7-2-3.3-3.1-5c-1.8-2.9-3.6-5.8-5.3-8.7
					C116,32,115.8,31.8,115.4,31.8C115.4,31.8,115.4,31.8,115.4,31.8"/>
			</defs>
			<clipPath id="SVGID_5_">
				<use xlink:href="#SVGID_4_"  style="overflow:visible;"/>
			</clipPath>
			
				<linearGradient id="SVGID_6_" gradientUnits="userSpaceOnUse" x1="-2224.2576" y1="170.0759" x2="-2224.1453" y2="170.0759" gradientTransform="matrix(2582.9087 -575.9796 575.9796 2582.9087 5647203 -1720362.875)">
				<stop  offset="0" style="stop-color:#FFAB00"/>
				<stop  offset="0.5223" style="stop-color:#FFA200"/>
				<stop  offset="1" style="stop-color:#FF7901"/>
			</linearGradient>
			<polygon class="st1" points="96.6,33.6 143.3,23.2 153.3,68.1 106.6,78.6 			"/>
		</g>
	</g>
	<g>
		<g>
			<defs>
				<path id="SVGID_7_" d="M288.9,60.3c-1.3-1.2-1.9-2.7-2.1-4.5c-0.2-1.8,0.2-3.5,1.3-5c1-1.3,2.2-2.1,3.8-2.3
					c0.1,0,0.2-0.1,0.4-0.1c0.1,0,0.2,0,0.4,0c2.1,0.2,3.8,1.1,4.9,3c0.7,1.1,1,2.3,1,3.6c-0.1,2.7-1,5.1-3.7,6.2
					c-0.7,0.3-1.5,0.5-2.2,0.5C291.3,61.8,289.9,61.3,288.9,60.3 M294.4,39.9c-2.3,0.2-4.2,1.1-5.9,2.7c-0.5,0.5-1,1-1.6,1.6
					c0-1.1,0-2.1,0-3c0-0.5-0.1-0.6-0.6-0.6c-3.1,0-6.2,0-9.3,0c-0.5,0-0.6,0.1-0.6,0.6c0,12.3,0,24.7,0,37c0,0.5,0.1,0.6,0.6,0.6
					c2.3,0,4.5,0,6.8,0c0.8,0,1.7,0,2.5,0c0.6,0,0.6,0,0.6-0.6c0-3.6,0-7.2,0-10.8c0-0.2-0.1-0.3,0.1-0.5c0.3,0.3,0.6,0.6,0.9,0.9
					c0.8,0.8,1.6,1.4,2.6,1.9c2,1,4.1,1.3,6.4,1.1c1.8-0.2,3.5-0.7,5.1-1.6c2.8-1.6,4.7-4.1,5.8-7.1c0.6-1.6,0.9-3.2,1.1-4.9
					c0.1-1.9,0.1-3.8-0.2-5.6c-0.7-3.4-2.1-6.3-4.7-8.6c-1.3-1.1-2.7-1.9-4.3-2.4c-1.2-0.4-2.5-0.6-3.8-0.6
					C295.3,39.8,294.9,39.8,294.4,39.9"/>
			</defs>
			<clipPath id="SVGID_8_">
				<use xlink:href="#SVGID_7_"  style="overflow:visible;"/>
			</clipPath>
			
				<linearGradient id="SVGID_9_" gradientUnits="userSpaceOnUse" x1="-2224.2607" y1="169.9471" x2="-2224.1445" y2="169.9471" gradientTransform="matrix(2582.9087 -575.9796 575.9796 2582.9087 5647287 -1719986.875)">
				<stop  offset="0" style="stop-color:#FFAB00"/>
				<stop  offset="0.5223" style="stop-color:#FFA200"/>
				<stop  offset="1" style="stop-color:#FF7901"/>
			</linearGradient>
			<polygon class="st2" points="268.2,41.6 307.4,32.9 317.2,76.8 278,85.6 			"/>
		</g>
	</g>
	<g>
		<g>
			<defs>
				<path id="SVGID_10_" d="M212.3,40.4c-2.3,0-4.5,0-6.8,0c-0.8,0-1.6,0-2.4,0c-0.7,0-0.7,0-0.7,0.7c0,5.2,0,10.5,0,15.7
					c0,1.2-0.4,2.3-1.2,3.2c-1.1,1.1-2.4,1.5-4,1.1c-0.7-0.2-1.4-0.5-1.9-1.1c-0.8-1-1.2-2.1-1.2-3.4c0-5.2,0-10.4,0-15.7
					c0-0.5-0.1-0.6-0.6-0.6c-2.2,0-4.5,0-6.7,0c-0.8,0-1.6,0-2.4,0c-0.7,0-0.7,0-0.7,0.7c0,6.3,0,12.5,0,18.8c0,1.6,0.2,3.2,0.8,4.7
					c0.8,2.2,2.2,3.8,4.2,4.9c1.2,0.6,2.5,0.9,3.9,1.1c1.5,0.2,3,0,4.4-0.5c2.2-0.7,3.9-2.1,5.4-3.9c0,1.2,0,2.2,0,3.2
					c0,0.5,0.1,0.6,0.6,0.6c3.1,0,6.2,0,9.3,0c0.5,0,0.6-0.1,0.6-0.6c0-9.4,0-18.9,0-28.3C212.9,40.6,212.8,40.4,212.3,40.4
					C212.3,40.4,212.3,40.4,212.3,40.4"/>
			</defs>
			<clipPath id="SVGID_11_">
				<use xlink:href="#SVGID_10_"  style="overflow:visible;"/>
			</clipPath>
			
				<linearGradient id="SVGID_12_" gradientUnits="userSpaceOnUse" x1="-2224.2583" y1="170.0147" x2="-2224.1453" y2="170.0147" gradientTransform="matrix(2582.9087 -575.9796 575.9796 2582.9087 5647243 -1720184.875)">
				<stop  offset="0" style="stop-color:#FFAB00"/>
				<stop  offset="0.5223" style="stop-color:#FFA200"/>
				<stop  offset="1" style="stop-color:#FF7901"/>
			</linearGradient>
			<polygon class="st3" points="177.3,41.8 211.5,34.2 219.4,69.3 185.1,76.9 			"/>
		</g>
	</g>
	<g>
		<g>
			<defs>
				<path id="SVGID_13_" d="M252.8,60.7c-1.5-1-2.3-2.4-2.7-4.1c-0.1-0.5-0.1-1-0.1-1.5c0-2,0.7-3.7,2.1-5c0.9-0.8,2-1.3,3.2-1.4
					c1.6-0.2,3,0.2,4.3,1.2c1.5,1.1,2.2,2.7,2.5,4.5c0.2,1.4,0,2.6-0.6,3.9c-0.8,1.9-2.3,3-4.3,3.4c-0.4,0.1-0.8,0.1-1.1,0.1
					C254.9,61.8,253.8,61.4,252.8,60.7 M253.5,39.9c-1.9,0.2-3.7,0.8-5.4,1.6c-2,1-3.7,2.4-5.1,4.2c-2.7,3.4-3.7,7.2-3.2,11.4
					c0.2,2.1,0.9,4,2,5.9c1.6,2.6,3.7,4.6,6.4,5.9c2.4,1.2,5,1.8,7.9,1.7c0.9,0.1,1.9,0,2.9-0.2c0.7-0.1,1.3-0.3,1.9-0.4
					c3-0.8,5.6-2.5,7.7-4.8c2.1-2.4,3.3-5.2,3.6-8.4c0.2-2.1,0-4.3-0.6-6.3c-0.9-2.9-2.6-5.3-5-7.2c-2.8-2.3-6.1-3.3-9.7-3.5
					c-0.3,0-0.5,0-0.8,0C255.3,39.8,254.4,39.8,253.5,39.9"/>
			</defs>
			<clipPath id="SVGID_14_">
				<use xlink:href="#SVGID_13_"  style="overflow:visible;"/>
			</clipPath>
			
				<linearGradient id="SVGID_15_" gradientUnits="userSpaceOnUse" x1="-2224.2593" y1="169.9767" x2="-2224.1453" y2="169.9767" gradientTransform="matrix(2582.9087 -575.9796 575.9796 2582.9087 5647267 -1720074.875)">
				<stop  offset="0" style="stop-color:#FFAB00"/>
				<stop  offset="0.5223" style="stop-color:#FFA200"/>
				<stop  offset="1" style="stop-color:#FF7901"/>
			</linearGradient>
			<polygon class="st4" points="232.8,41.2 270.9,32.7 279,69.2 240.9,77.7 			"/>
		</g>
	</g>
	<g>
		<g>
			<defs>
				<path id="SVGID_16_" d="M160,52.2c0.3-1.2,0.8-2.4,1.7-3.3c1.3-1.3,3.1-1.7,4.9-1c1.8,0.7,2.7,2.2,3.1,4c0,0.1,0,0.1,0,0.2
					c0.1,0.6,0.1,0.6-0.5,0.6c-1.5,0-2.9,0-4.4,0c-1.5,0-3,0-4.5,0c0,0,0,0,0,0C160,52.7,159.9,52.6,160,52.2 M161.9,40
					c-3.6,0.6-6.5,2.4-8.8,5.3c-2.1,2.7-3,5.8-3.2,9.1c-0.1,1.4,0,2.7,0.3,4c0.5,2.9,1.7,5.4,3.7,7.6c1.3,1.3,2.8,2.4,4.5,3.1
					c3.2,1.4,6.5,1.7,9.9,1.3c2-0.2,3.9-0.9,5.7-1.9c1.7-1,3.2-2.2,4.4-3.8c0.1-0.2,0.2-0.3,0-0.4c-0.8-0.6-1.6-1.3-2.4-2
					c-1-0.8-1.9-1.6-2.9-2.4c-0.2-0.2-0.5-0.2-0.7,0c-0.6,0.7-1.3,1.2-2.1,1.6c-1.9,1.1-3.9,1.4-6,0.9c-2.1-0.5-3.4-1.9-4.1-3.9
					c-0.2-0.6-0.2-0.6,0.4-0.6c2.2,0,4.4,0,6.6,0c0.9,0,1.7,0,2.6,0c0.9,0,1.7,0,2.6,0c2.2,0,4.4,0,6.6,0c0.6,0,0.6-0.1,0.6-0.6
					c0-1.4,0-2.8-0.2-4.2c-0.2-1.8-0.6-3.5-1.4-5.2c-1.4-3.1-3.5-5.4-6.6-6.9c-1.8-0.9-3.8-1.2-5.8-1.4c-0.3,0-0.6,0-0.9,0
					C163.9,39.8,162.9,39.9,161.9,40"/>
			</defs>
			<clipPath id="SVGID_17_">
				<use xlink:href="#SVGID_16_"  style="overflow:visible;"/>
			</clipPath>
			
				<linearGradient id="SVGID_18_" gradientUnits="userSpaceOnUse" x1="-2224.2576" y1="170.0358" x2="-2224.1465" y2="170.0358" gradientTransform="matrix(2582.9087 -575.9796 575.9796 2582.9087 5647229 -1720246.875)">
				<stop  offset="0" style="stop-color:#FFAB00"/>
				<stop  offset="0.5223" style="stop-color:#FFA200"/>
				<stop  offset="1" style="stop-color:#FF7901"/>
			</linearGradient>
			<polygon class="st5" points="143.3,41.2 178.3,33.4 186.3,69.4 151.3,77.2 			"/>
		</g>
	</g>
	<g>
		<g>
			<defs>
				<path id="SVGID_19_" d="M318.7,40.7c-1.9,0.7-3.4,1.7-4.6,3.3c-0.9,1.3-1.5,2.7-1.6,4.2c-0.2,1.4-0.1,2.8,0.3,4.1
					c0.7,2.2,2.2,3.7,4.3,4.7c2.2,1.1,4.5,1.7,6.8,2.3c1,0.3,2,0.5,2.9,1.1c0.4,0.3,0.8,0.6,0.8,1.2c-0.1,0.6-0.4,1-1,1.2
					c-1.2,0.4-2.5,0.2-3.7,0c-2.7-0.4-5.2-1.5-7.4-2.9c-0.4-0.2-0.6-0.2-0.8,0.2c-1.1,1.9-2.3,3.7-3.4,5.6c-0.2,0.3-0.1,0.4,0.1,0.6
					c1.1,0.8,2.3,1.5,3.6,2c4,1.8,8.3,2.5,12.7,2c1.9-0.2,3.7-0.7,5.3-1.7c1.7-1,2.9-2.5,3.6-4.3c0.5-1.4,0.7-2.9,0.6-4.4
					c-0.1-1-0.2-1.9-0.6-2.7c-0.9-1.8-2.3-3-4.1-3.9c-2-1-4.1-1.6-6.3-2.2c-1.1-0.3-2.3-0.7-3.3-1.3c-0.5-0.3-0.8-0.6-0.8-1.2
					c0-0.5,0.4-0.8,0.8-1.1c0.4-0.2,0.8-0.2,1.2-0.3c1.5-0.1,2.9,0.3,4.3,0.7c1.5,0.5,3,1.1,4.4,1.9c0.2,0.1,0.4,0.2,0.6-0.1
					c1-1.8,2-3.6,3-5.5c0.5-1,0.6-0.8-0.4-1.4c-3.5-2-7.3-2.9-11.7-2.9c-0.1,0-0.3,0-0.5,0C322,39.8,320.3,40.1,318.7,40.7"/>
			</defs>
			<clipPath id="SVGID_20_">
				<use xlink:href="#SVGID_19_"  style="overflow:visible;"/>
			</clipPath>
			
				<linearGradient id="SVGID_21_" gradientUnits="userSpaceOnUse" x1="-2224.2607" y1="169.9312" x2="-2224.1445" y2="169.9312" gradientTransform="matrix(2582.9087 -575.9796 575.9796 2582.9087 5647297 -1719942.875)">
				<stop  offset="0" style="stop-color:#FFAB00"/>
				<stop  offset="0.5223" style="stop-color:#FFA200"/>
				<stop  offset="1" style="stop-color:#FF7901"/>
			</linearGradient>
			<polygon class="st6" points="304.3,41.3 335.8,34.3 343.6,69.5 312.1,76.5 			"/>
		</g>
	</g>
	<g>
		<g>
			<defs>
				<path id="SVGID_22_" d="M220.1,33.6c0,2.1,0,4.2,0,6.3c0,0.4-0.1,0.5-0.5,0.5c-0.5,0-0.9,0-1.4,0c-0.4,0-0.7,0-1.1,0
					c-0.3,0-0.5,0.1-0.5,0.5c0,2.5,0,5,0,7.6c0,0.3,0.1,0.5,0.5,0.5c0.4,0,0.7,0,1.1,0c0.5,0,0.9,0,1.4,0c0.4,0,0.5,0.1,0.5,0.5
					c0,2.1,0,4.2,0,6.3c0,1.9,0,3.9,0,5.8c0,0.8,0.1,1.6,0.3,2.4c0.4,2.1,1.4,3.9,3.3,5.1c1.6,1,3.3,1.4,5.2,1.5c1,0,2.1,0,3.1-0.1
					c1.7-0.2,3.3-0.6,4.9-1.3c0.3-0.1,0.5-0.4,0.5-0.7c0-2.4,0-4.8,0-7.2c0-0.5-0.1-0.6-0.5-0.3c-1.1,0.5-2.3,0.8-3.6,0.8
					c-1.8,0-2.6-1-2.6-2.7c0-3.1,0-6.3,0-9.4c0-0.5,0.1-0.6,0.6-0.6c1.9,0,3.7,0,5.6,0c0.6,0,0.6,0,0.6-0.7c0-2.4,0-4.8,0-7.2
					c0-0.7,0-0.7-0.7-0.7c-1,0-2,0-2.9,0c-0.9,0-1.7,0-2.6,0c-0.6,0-0.6,0-0.6-0.6c0-2.1,0-4.1,0-6.2c0-0.4-0.1-0.6-0.6-0.6
					c-3.1,0-6.2,0-9.3,0c0,0,0,0,0,0C220.2,33,220.1,33.2,220.1,33.6"/>
			</defs>
			<clipPath id="SVGID_23_">
				<use xlink:href="#SVGID_22_"  style="overflow:visible;"/>
			</clipPath>
			
				<linearGradient id="SVGID_24_" gradientUnits="userSpaceOnUse" x1="-2224.2561" y1="170.0064" x2="-2224.1494" y2="170.0064" gradientTransform="matrix(2582.9087 -575.9796 575.9796 2582.9087 5647248 -1720160.875)">
				<stop  offset="0" style="stop-color:#FFAB00"/>
				<stop  offset="0.5223" style="stop-color:#FFA200"/>
				<stop  offset="1" style="stop-color:#FF7901"/>
			</linearGradient>
			<polygon class="st7" points="208.7,34.8 236.4,28.6 245.4,68.8 217.7,74.9 			"/>
		</g>
	</g>
	<g>
		<g>
			<defs>
				<path id="SVGID_25_" d="M359.1,33.6c0,2.1,0,4.2,0,6.3c0,0.4-0.1,0.5-0.5,0.5c-0.4,0-0.9,0-1.3,0c-0.4,0-0.8,0-1.2,0
					c-0.3,0-0.5,0.1-0.5,0.5c0,2.5,0,5,0,7.6c0,0.3,0.1,0.5,0.5,0.5c0.4,0,0.7,0,1.1,0c0.5,0,0.9,0,1.4,0c0.4,0,0.5,0.1,0.5,0.5
					c0,2.1,0,4.1,0,6.2c0,1.9,0,3.7,0,5.6c0,1.5,0.2,2.9,0.7,4.3c0.5,1.2,1.1,2.2,2.1,3c1.7,1.4,3.7,1.9,5.9,2c1,0.1,2.1,0,3.1-0.1
					c1.7-0.2,3.3-0.6,4.9-1.3c0.3-0.1,0.5-0.3,0.4-0.7c0-2.4,0-4.8,0-7.2c0-0.6-0.1-0.6-0.6-0.4c-1.2,0.5-2.5,0.8-3.8,0.7
					c-0.9-0.1-1.7-0.4-2-1.4c-0.2-0.4-0.2-0.9-0.2-1.4c0-3.1,0-6.3,0-9.4c0-0.4,0.1-0.5,0.5-0.5c0.9,0,1.8,0,2.7,0c1,0,2,0,3,0
					c0.4,0,0.6-0.1,0.6-0.6c0-2.4,0-4.9,0-7.3c0-0.4-0.1-0.6-0.6-0.6c-1.9,0-3.7,0-5.6,0c-0.7,0-0.7,0-0.7-0.7c0-2,0-4.1,0-6.1
					c0-0.5-0.2-0.6-0.6-0.6c-3.1,0-6.2,0-9.3,0c0,0,0,0,0,0C359.2,33,359.1,33.2,359.1,33.6"/>
			</defs>
			<clipPath id="SVGID_26_">
				<use xlink:href="#SVGID_25_"  style="overflow:visible;"/>
			</clipPath>
			
				<linearGradient id="SVGID_27_" gradientUnits="userSpaceOnUse" x1="-2224.2537" y1="169.9148" x2="-2224.1472" y2="169.9148" gradientTransform="matrix(2582.9087 -575.9796 575.9796 2582.9087 5647307 -1719894.875)">
				<stop  offset="0" style="stop-color:#FFAB00"/>
				<stop  offset="0.5223" style="stop-color:#FFA200"/>
				<stop  offset="1" style="stop-color:#FF7901"/>
			</linearGradient>
			<polygon class="st8" points="347.6,34.8 375.4,28.6 384.3,68.8 356.6,75 			"/>
		</g>
	</g>
	<g>
		<g>
			<defs>
				<path id="SVGID_28_" d="M351.1,40.4c-3.1,0-6.2,0-9.3,0c-0.5,0-0.6,0.1-0.6,0.6c0,9.4,0,18.9,0,28.3c0,0.5,0.1,0.6,0.6,0.6
					c2.3,0,4.5,0,6.8,0c0.8,0,1.6,0,2.4,0c0.6,0,0.6,0,0.6-0.6c0-4.7,0-9.4,0-14.1c0-4.7,0-9.5,0-14.2
					C351.7,40.6,351.6,40.4,351.1,40.4C351.1,40.4,351.1,40.4,351.1,40.4"/>
			</defs>
			<clipPath id="SVGID_29_">
				<use xlink:href="#SVGID_28_"  style="overflow:visible;"/>
			</clipPath>
			
				<linearGradient id="SVGID_30_" gradientUnits="userSpaceOnUse" x1="-2224.2593" y1="169.9168" x2="-2224.1467" y2="169.9168" gradientTransform="matrix(2582.9087 -575.9796 575.9796 2582.9087 5647306 -1719900.875)">
				<stop  offset="0" style="stop-color:#FFAB00"/>
				<stop  offset="0.5223" style="stop-color:#FFA200"/>
				<stop  offset="1" style="stop-color:#FF7901"/>
			</linearGradient>
			<polygon class="st9" points="334.9,41.8 351.2,38.2 358,68.6 341.7,72.2 			"/>
		</g>
	</g>
	<g>
		<g>
			<defs>
				<path id="SVGID_31_" d="M341,30.7c0,2.2,0,4.5,0,6.7c0,0.4,0.1,0.6,0.6,0.6c1.6,0,3.3,0,4.9,0c1.6,0,3.3,0,4.9,0
					c0.4,0,0.6-0.1,0.6-0.6c0-2.2,0-4.5,0-6.7c0-0.4-0.1-0.6-0.6-0.6c-3.3,0-6.5,0-9.8,0c0,0,0,0,0,0C341.2,30.1,341,30.3,341,30.7"
					/>
			</defs>
			<clipPath id="SVGID_32_">
				<use xlink:href="#SVGID_31_"  style="overflow:visible;"/>
			</clipPath>
			
				<linearGradient id="SVGID_33_" gradientUnits="userSpaceOnUse" x1="-2224.2439" y1="169.9794" x2="-2224.1501" y2="169.9794" gradientTransform="matrix(2582.9087 -575.9796 575.9796 2582.9087 5647266 -1720082.875)">
				<stop  offset="0" style="stop-color:#FFAB00"/>
				<stop  offset="0.5223" style="stop-color:#FFA200"/>
				<stop  offset="1" style="stop-color:#FF7901"/>
			</linearGradient>
			<polygon class="st10" points="339.4,30.5 351.4,27.8 353.6,37.6 341.5,40.3 			"/>
		</g>
	</g>
</g>
<g>
	<g>
		<g>
			<defs>
				<path id="SVGID_34_" d="M74.7,19.3v23.2v0.1v21.1L58,80.5V59.4l-8.2,8.2l-8.2-8.2v21.1L24.8,63.7V42.6l-0.2-23.1l25,25
					L74.7,19.3z M47.2,2.8c-0.6,0.2-1.2,0.1-1.8,0.1c-2.6,0.2-5.2,0.7-7.8,1.4c-2.5,0.7-4.9,1.6-7.2,2.6c-3.1,1.4-5.9,3.1-8.6,5.2
					c-2.1,1.6-4.1,3.4-5.9,5.4c-2.4,2.6-4.4,5.4-6.1,8.4c-2.3,4-4,8.3-4.9,12.9c-0.4,2.1-0.8,4.2-0.9,6.4c-0.1,0.9,0,1.8-0.1,2.7
					c0,0.2,0,0.4-0.1,0.6v0.3c0,0.2,0.1,0.3,0.1,0.5c0,5.1,0.9,10.1,2.7,14.9c1.1,3.2,2.7,6.3,4.5,9.2c1.4,2.1,2.9,4.1,4.5,5.9
					c3.3,3.7,7.1,6.7,11.3,9.2c4,2.3,8.3,3.9,12.8,4.9c1.9,0.4,3.7,0.7,5.6,0.9c0.6,0.1,1.3,0,1.9,0.1h5c0.6-0.1,1.3-0.1,1.9-0.1
					c1.2-0.1,2.4-0.3,3.6-0.5c2.7-0.5,5.3-1.2,7.9-2.1c2.7-1,5.3-2.3,7.8-3.8c2.6-1.5,5-3.3,7.2-5.3c1.7-1.6,3.3-3.2,4.8-5
					c2-2.5,3.8-5.2,5.3-8.1c1.8-3.4,3.1-7.1,3.9-10.8c0.7-3.1,1-6.2,1.1-9.3c0-1,0-2-0.1-2.9c-0.1-1.5-0.2-3-0.4-4.5
					c-0.3-2.5-0.9-5-1.7-7.5c-1-3-2.2-5.9-3.8-8.7c-1.7-2.9-3.6-5.7-5.9-8.1c-1.6-1.7-3.2-3.3-5-4.8c-2.3-1.9-4.8-3.6-7.5-5
					c-3.5-1.8-7.2-3.2-11.1-4.1c-2-0.5-4-0.8-6.1-1c-0.6-0.1-1.2,0-1.7-0.1L47.2,2.8L47.2,2.8z"/>
			</defs>
			<clipPath id="SVGID_35_">
				<use xlink:href="#SVGID_34_"  style="overflow:visible;"/>
			</clipPath>
			
				<linearGradient id="SVGID_36_" gradientUnits="userSpaceOnUse" x1="-2221.8896" y1="170.4038" x2="-2221.7695" y2="170.4038" gradientTransform="matrix(762.0854 0 0 762.0854 1693273.75 -129813.6328)">
				<stop  offset="0" style="stop-color:#FFAB00"/>
				<stop  offset="0.5223" style="stop-color:#FFA200"/>
				<stop  offset="1" style="stop-color:#FF7901"/>
			</linearGradient>
			<rect x="3.8" y="2.8" class="st11" width="91.9" height="91.7"/>
		</g>
	</g>
</g>
</svg>
