<?xml version="1.0" encoding="utf-8"?>
<!-- Generator: Adobe Illustrator 16.0.0, SVG Export Plug-In . SVG Version: 6.00 Build 0)  -->
<!DOCTYPE svg PUBLIC "-//W3C//DTD SVG 1.1//EN" "http://www.w3.org/Graphics/SVG/1.1/DTD/svg11.dtd">
<svg version="1.1" id="Camada_1" xmlns="http://www.w3.org/2000/svg" xmlns:xlink="http://www.w3.org/1999/xlink" x="0px" y="0px"
	 width="89.893px" height="96px" viewBox="0 0 89.893 96" enable-background="new 0 0 89.893 96" xml:space="preserve">
<title>saas</title>
<desc>Created with Sketch.</desc>
<g>
	<path d="M73.288,63.854l7.322,3.848c-2.401,4.716-5.176,8.521-8.322,11.417c-3.147,2.896-6.687,5.099-10.62,6.607
		c-3.935,1.51-8.386,2.266-13.353,2.266c-11.014,0-19.625-3.609-25.836-10.827c-6.21-7.219-9.315-15.378-9.315-24.479
		c0-8.562,2.628-16.195,7.887-22.896c6.665-8.521,15.587-12.782,26.767-12.782c11.51,0,20.701,4.365,27.574,13.092
		c4.885,6.165,7.369,13.858,7.452,23.083H22.099c0.165,7.841,2.671,14.27,7.517,19.284c4.846,5.013,10.831,7.521,17.954,7.521
		c3.438,0,6.781-0.598,10.032-1.792s6.015-2.782,8.294-4.76C68.173,71.457,70.638,68.266,73.288,63.854z M73.288,45.675
		c-1.159-4.632-2.848-8.335-5.063-11.107c-2.216-2.771-5.146-5.004-8.79-6.701c-3.646-1.695-7.477-2.544-11.493-2.544
		c-6.627,0-12.322,2.131-17.084,6.392c-3.479,3.102-6.11,7.756-7.89,13.96H73.288z"/>
</g>
<rect x="5.319" y="45.675" width="40.524" height="6.825"/>
</svg>
