<?xml version="1.0" encoding="utf-8"?>
<!-- Generator: Adobe Illustrator 16.0.0, SVG Export Plug-In . SVG Version: 6.00 Build 0)  -->
<!DOCTYPE svg PUBLIC "-//W3C//DTD SVG 1.1//EN" "http://www.w3.org/Graphics/SVG/1.1/DTD/svg11.dtd">
<svg version="1.1" id="Camada_1" xmlns="http://www.w3.org/2000/svg" xmlns:xlink="http://www.w3.org/1999/xlink" x="0px" y="0px"
	 width="38.588px" height="7.066px" viewBox="0 0 38.588 7.066" enable-background="new 0 0 38.588 7.066" xml:space="preserve">
<g>
	<g>
		<g>
			<defs>
				<path id="SVGID_1_" d="M35.66,3.359c0.049-0.193,0.129-0.369,0.301-0.485c0.273-0.186,0.664-0.08,0.814,0.215
					c0.043,0.085,0.076,0.174,0.096,0.268c0.008,0.041,0.003,0.061-0.049,0.061c-0.186-0.004-0.371-0.002-0.557-0.002
					s-0.371,0-0.557,0.001c-0.001,0-0.003,0-0.004,0C35.663,3.416,35.647,3.407,35.66,3.359 M35.899,1.861
					c-0.438,0.08-0.797,0.295-1.071,0.643c-0.28,0.355-0.398,0.769-0.405,1.215c-0.003,0.189,0.021,0.377,0.068,0.562
					c0.07,0.266,0.188,0.507,0.372,0.715c0.176,0.201,0.388,0.355,0.634,0.461c0.222,0.096,0.453,0.151,0.692,0.163
					c0.208,0.01,0.417,0.01,0.623-0.032C37,5.548,37.18,5.489,37.351,5.398c0.132-0.07,0.251-0.159,0.364-0.255
					c0.079-0.067,0.146-0.146,0.211-0.227c0.021-0.024,0.03-0.046-0.008-0.068c-0.032-0.02-0.059-0.048-0.088-0.072
					c-0.175-0.146-0.349-0.291-0.525-0.435c-0.072-0.06-0.072-0.055-0.143,0.011c-0.24,0.221-0.517,0.339-0.851,0.296
					c-0.309-0.041-0.515-0.205-0.618-0.497c-0.025-0.071-0.025-0.071,0.05-0.071c0.752,0,1.503,0,2.255-0.001
					c0.028,0,0.058-0.002,0.086-0.004V3.604c-0.002-0.007-0.006-0.014-0.006-0.021c-0.011-0.215-0.056-0.423-0.13-0.625
					c-0.108-0.294-0.271-0.551-0.516-0.751c-0.308-0.251-0.671-0.355-1.061-0.376c-0.034-0.002-0.069-0.003-0.104-0.003
					C36.145,1.826,36.021,1.838,35.899,1.861"/>
			</defs>
			<clipPath id="SVGID_2_">
				<use xlink:href="#SVGID_1_"  overflow="visible"/>
			</clipPath>
			
				<linearGradient id="SVGID_3_" gradientUnits="userSpaceOnUse" x1="-1358.9199" y1="-430.2607" x2="-1358.908" y2="-430.2607" gradientTransform="matrix(2582.9087 -575.9796 575.9796 2582.9087 3757791.5 328621.9688)">
				<stop  offset="0" style="stop-color:#F8AA14"/>
				<stop  offset="0.5223" style="stop-color:#F6A019"/>
				<stop  offset="1" style="stop-color:#EF781C"/>
			</linearGradient>
			<polygon clip-path="url(#SVGID_2_)" fill="url(#SVGID_3_)" points="33.612,2.006 37.91,1.047 38.892,5.449 34.594,6.407 			"/>
		</g>
	</g>
	<g>
		<g>
			<defs>
				<path id="SVGID_4_" d="M2.032,0.849C1.728,0.85,1.423,0.85,1.119,0.85c-0.11,0-0.219,0-0.329,0c-0.076,0-0.076,0-0.076,0.076
					c0,1.513,0,3.025,0,4.539c0,0.075,0,0.075,0.077,0.075c0.376,0,0.752,0,1.127,0c0.082,0,0.082,0,0.082-0.082
					c0-0.828,0-1.657,0-2.485V2.915c0.069,0.088,0.126,0.178,0.185,0.267C2.501,3.667,2.82,4.152,3.139,4.638
					C3.187,4.71,3.195,4.71,3.244,4.635c0.188-0.286,0.374-0.572,0.561-0.858c0.189-0.29,0.377-0.579,0.566-0.868l0.012,0.003v0.062
					c0,0.83,0,1.66,0,2.49c0,0.076,0,0.076,0.076,0.076c0.107,0.001,0.213,0,0.32,0c0.282,0,0.565,0,0.847,0.001
					c0.051,0.001,0.072-0.015,0.065-0.065c-0.001-0.013,0-0.026,0-0.04c0-1.493,0-2.987,0-4.48c0-0.018-0.001-0.035,0-0.052
					C5.695,0.863,5.677,0.85,5.638,0.85c-0.43,0.001-0.859,0.001-1.289,0c-0.034,0-0.051,0.014-0.068,0.042
					C4.247,0.953,4.208,1.012,4.171,1.072C3.985,1.373,3.8,1.673,3.615,1.973c-0.126,0.207-0.254,0.413-0.38,0.62
					C3.21,2.633,3.198,2.636,3.171,2.592c-0.124-0.206-0.25-0.41-0.376-0.615c-0.22-0.356-0.439-0.711-0.658-1.067
					C2.111,0.868,2.084,0.849,2.032,0.849C2.033,0.849,2.033,0.849,2.032,0.849"/>
			</defs>
			<clipPath id="SVGID_5_">
				<use xlink:href="#SVGID_4_"  overflow="visible"/>
			</clipPath>
			
				<linearGradient id="SVGID_6_" gradientUnits="userSpaceOnUse" x1="-1358.9214" y1="-430.0488" x2="-1358.9058" y2="-430.0488" gradientTransform="matrix(2582.9087 -575.9796 575.9796 2582.9087 3757667.5 328067.9688)">
				<stop  offset="0" style="stop-color:#F8AA14"/>
				<stop  offset="0.5223" style="stop-color:#F6A019"/>
				<stop  offset="1" style="stop-color:#EF781C"/>
			</linearGradient>
			<polygon clip-path="url(#SVGID_5_)" fill="url(#SVGID_6_)" points="-0.283,1.071 5.462,-0.21 6.695,5.319 0.95,6.6 			"/>
		</g>
	</g>
	<g>
		<g>
			<defs>
				<path id="SVGID_7_" d="M23.377,4.357c-0.163-0.146-0.236-0.336-0.258-0.552c-0.021-0.225,0.028-0.429,0.162-0.609
					c0.116-0.158,0.272-0.258,0.473-0.28c0.016-0.001,0.03-0.006,0.045-0.009c0.013-0.002,0.027-0.002,0.045-0.003
					c0.261,0.019,0.469,0.133,0.607,0.364c0.083,0.137,0.124,0.287,0.119,0.442c-0.009,0.338-0.127,0.622-0.458,0.769
					c-0.088,0.039-0.181,0.059-0.273,0.059C23.674,4.539,23.51,4.478,23.377,4.357 M24.058,1.837
					c-0.279,0.028-0.518,0.138-0.721,0.327c-0.064,0.06-0.124,0.124-0.193,0.193c0-0.131-0.003-0.253,0.001-0.375
					c0.003-0.059-0.017-0.075-0.074-0.075c-0.384,0.002-0.767,0.002-1.15,0c-0.059,0-0.074,0.018-0.074,0.075
					c0.001,1.519,0.001,3.036,0,4.555c0,0.059,0.018,0.074,0.075,0.074c0.278-0.002,0.557-0.002,0.835-0.001c0.103,0,0.206,0,0.31,0
					c0.078,0,0.078-0.001,0.078-0.08c0-0.443,0-0.886,0-1.328c0-0.021-0.006-0.042,0.01-0.068c0.036,0.037,0.07,0.073,0.105,0.108
					c0.095,0.093,0.2,0.171,0.319,0.23c0.247,0.121,0.508,0.163,0.782,0.14c0.224-0.02,0.431-0.081,0.623-0.193
					c0.343-0.202,0.574-0.499,0.711-0.869c0.073-0.195,0.116-0.398,0.132-0.607c0.018-0.232,0.015-0.463-0.03-0.69
					c-0.08-0.414-0.255-0.778-0.58-1.059c-0.155-0.134-0.329-0.234-0.525-0.294c-0.152-0.047-0.308-0.07-0.465-0.07
					C24.17,1.829,24.114,1.832,24.058,1.837"/>
			</defs>
			<clipPath id="SVGID_8_">
				<use xlink:href="#SVGID_7_"  overflow="visible"/>
			</clipPath>
			
				<linearGradient id="SVGID_9_" gradientUnits="userSpaceOnUse" x1="-1358.9219" y1="-430.1924" x2="-1358.9069" y2="-430.1924" gradientTransform="matrix(2582.9087 -575.9796 575.9796 2582.9087 3757751.5 328443.9688)">
				<stop  offset="0" style="stop-color:#F8AA14"/>
				<stop  offset="0.5223" style="stop-color:#F6A019"/>
				<stop  offset="1" style="stop-color:#EF781C"/>
			</linearGradient>
			<polygon clip-path="url(#SVGID_8_)" fill="url(#SVGID_9_)" points="20.83,2.055 25.655,0.979 26.86,6.385 22.035,7.461 			"/>
		</g>
	</g>
	<g>
		<g>
			<defs>
				<path id="SVGID_10_" d="M13.959,1.907c-0.278,0.002-0.558,0.001-0.836,0.001c-0.097,0-0.194,0-0.291,0
					c-0.085,0-0.085,0-0.085,0.084c0,0.644,0.001,1.288-0.001,1.933c0,0.147-0.045,0.286-0.149,0.393
					c-0.133,0.137-0.3,0.18-0.489,0.138c-0.09-0.021-0.17-0.062-0.23-0.13c-0.104-0.118-0.146-0.263-0.147-0.418
					c0-0.642-0.001-1.284,0.001-1.926c0-0.058-0.016-0.075-0.074-0.075c-0.276,0.002-0.553,0.001-0.83,0.001
					c-0.099,0-0.198,0-0.298,0c-0.084,0-0.084,0-0.084,0.085c0,0.771,0.001,1.542-0.001,2.313c-0.001,0.196,0.026,0.388,0.093,0.572
					c0.098,0.268,0.268,0.473,0.522,0.605c0.151,0.078,0.313,0.112,0.483,0.13c0.186,0.019,0.367,0,0.542-0.057
					c0.267-0.088,0.479-0.256,0.662-0.486c0,0.143,0.002,0.269-0.001,0.396c-0.002,0.057,0.013,0.076,0.073,0.076
					c0.379-0.003,0.759-0.002,1.139-0.001c0.057,0.001,0.075-0.014,0.075-0.073c-0.001-1.161-0.001-2.323,0-3.485
					c0-0.056-0.014-0.075-0.072-0.075C13.961,1.907,13.96,1.907,13.959,1.907"/>
			</defs>
			<clipPath id="SVGID_11_">
				<use xlink:href="#SVGID_10_"  overflow="visible"/>
			</clipPath>
			
				<linearGradient id="SVGID_12_" gradientUnits="userSpaceOnUse" x1="-1358.9204" y1="-430.1172" x2="-1358.9082" y2="-430.1172" gradientTransform="matrix(2582.9087 -575.9796 575.9796 2582.9087 3757707.5 328245.9688)">
				<stop  offset="0" style="stop-color:#F8AA14"/>
				<stop  offset="0.5223" style="stop-color:#F6A019"/>
				<stop  offset="1" style="stop-color:#EF781C"/>
			</linearGradient>
			<polygon clip-path="url(#SVGID_11_)" fill="url(#SVGID_12_)" points="9.653,2.083 13.864,1.144 14.825,5.454 10.615,6.394 			"/>
		</g>
	</g>
	<g>
		<g>
			<defs>
				<path id="SVGID_13_" d="M18.935,4.406c-0.183-0.121-0.286-0.297-0.335-0.507c-0.015-0.061-0.01-0.122-0.013-0.183
					c-0.005-0.245,0.081-0.452,0.262-0.617c0.112-0.102,0.248-0.154,0.398-0.17c0.194-0.021,0.37,0.027,0.524,0.146
					c0.18,0.14,0.272,0.328,0.306,0.551c0.024,0.167-0.005,0.324-0.071,0.474c-0.103,0.229-0.282,0.37-0.53,0.418
					c-0.048,0.009-0.095,0.014-0.14,0.014C19.193,4.532,19.059,4.489,18.935,4.406 M19.027,1.849
					c-0.231,0.029-0.452,0.097-0.659,0.202c-0.246,0.125-0.458,0.293-0.631,0.51c-0.328,0.414-0.455,0.885-0.397,1.405
					c0.029,0.256,0.111,0.498,0.245,0.721c0.192,0.32,0.457,0.562,0.791,0.725c0.299,0.146,0.617,0.22,0.971,0.208
					c0.106,0.01,0.23-0.005,0.353-0.023c0.08-0.014,0.16-0.033,0.239-0.056c0.375-0.104,0.692-0.303,0.946-0.595
					c0.256-0.294,0.404-0.638,0.442-1.029c0.026-0.264,0.006-0.523-0.076-0.774c-0.115-0.354-0.318-0.647-0.611-0.88
					c-0.35-0.278-0.751-0.406-1.19-0.434c-0.033-0.002-0.067-0.003-0.101-0.003C19.242,1.826,19.134,1.836,19.027,1.849"/>
			</defs>
			<clipPath id="SVGID_14_">
				<use xlink:href="#SVGID_13_"  overflow="visible"/>
			</clipPath>
			
				<linearGradient id="SVGID_15_" gradientUnits="userSpaceOnUse" x1="-1358.9219" y1="-430.1592" x2="-1358.9064" y2="-430.1592" gradientTransform="matrix(2582.9087 -575.9796 575.9796 2582.9087 3757731.5 328355.9688)">
				<stop  offset="0" style="stop-color:#F8AA14"/>
				<stop  offset="0.5223" style="stop-color:#F6A019"/>
				<stop  offset="1" style="stop-color:#EF781C"/>
			</linearGradient>
			<polygon clip-path="url(#SVGID_14_)" fill="url(#SVGID_15_)" points="16.474,2.006 21.16,0.961 22.162,5.451 17.476,6.496 			"/>
		</g>
	</g>
	<g>
		<g>
			<defs>
				<path id="SVGID_16_" d="M7.52,3.354c0.04-0.152,0.097-0.297,0.21-0.407c0.163-0.159,0.379-0.212,0.603-0.125
					C8.56,2.91,8.666,3.095,8.72,3.319c0.002,0.007,0.001,0.015,0.003,0.022c0.015,0.073,0.015,0.073-0.062,0.073
					c-0.18,0-0.36,0-0.541,0c-0.184,0-0.368-0.001-0.552,0.001c0,0-0.002,0-0.003,0C7.518,3.417,7.506,3.403,7.52,3.354 M7.759,1.86
					c-0.443,0.08-0.802,0.3-1.079,0.651C6.422,2.838,6.306,3.22,6.283,3.631c-0.01,0.167,0.005,0.332,0.033,0.496
					c0.062,0.356,0.211,0.67,0.46,0.931c0.158,0.166,0.345,0.293,0.556,0.388c0.391,0.175,0.8,0.205,1.217,0.161
					C8.798,5.58,9.034,5.5,9.251,5.375c0.209-0.12,0.39-0.273,0.538-0.464c0.019-0.023,0.019-0.035-0.005-0.055
					c-0.098-0.08-0.193-0.161-0.29-0.242C9.376,4.516,9.257,4.417,9.138,4.318c-0.031-0.026-0.056-0.03-0.086,0.004
					c-0.074,0.081-0.163,0.145-0.257,0.2c-0.23,0.133-0.476,0.172-0.734,0.106c-0.255-0.065-0.42-0.23-0.51-0.475
					c-0.025-0.069-0.023-0.075,0.05-0.075c0.273,0,0.545,0,0.818,0c0.105,0,0.21,0,0.315,0c0.107,0,0.214,0,0.321,0
					c0.272,0,0.545,0,0.817,0c0.068,0,0.076-0.008,0.076-0.076c0-0.174,0-0.348-0.021-0.521C9.9,3.261,9.85,3.047,9.76,2.843
					c-0.167-0.38-0.429-0.667-0.808-0.846C8.726,1.891,8.485,1.844,8.239,1.83c-0.037-0.002-0.073-0.004-0.11-0.004
					C8.005,1.826,7.882,1.838,7.759,1.86"/>
			</defs>
			<clipPath id="SVGID_17_">
				<use xlink:href="#SVGID_16_"  overflow="visible"/>
			</clipPath>
			
				<linearGradient id="SVGID_18_" gradientUnits="userSpaceOnUse" x1="-1358.9209" y1="-430.0928" x2="-1358.9089" y2="-430.0928" gradientTransform="matrix(2582.9087 -575.9796 575.9796 2582.9087 3757695.5 328183.9688)">
				<stop  offset="0" style="stop-color:#F8AA14"/>
				<stop  offset="0.5223" style="stop-color:#F6A019"/>
				<stop  offset="1" style="stop-color:#EF781C"/>
			</linearGradient>
			<polygon clip-path="url(#SVGID_17_)" fill="url(#SVGID_18_)" points="5.461,2.007 9.774,1.045 10.761,5.469 6.447,6.431 			"/>
		</g>
	</g>
	<g>
		<g>
			<defs>
				<path id="SVGID_19_" d="M27.049,1.942c-0.229,0.081-0.424,0.211-0.571,0.406c-0.116,0.154-0.18,0.33-0.202,0.521
					c-0.021,0.173-0.018,0.344,0.033,0.511c0.083,0.275,0.276,0.456,0.524,0.584c0.265,0.138,0.553,0.206,0.837,0.287
					c0.125,0.035,0.252,0.067,0.363,0.137c0.054,0.032,0.102,0.075,0.094,0.146c-0.01,0.073-0.053,0.124-0.125,0.149
					c-0.153,0.054-0.307,0.028-0.458,0.004c-0.331-0.054-0.634-0.183-0.916-0.36c-0.047-0.029-0.068-0.021-0.095,0.021
					c-0.141,0.23-0.281,0.46-0.424,0.688c-0.022,0.036-0.014,0.053,0.018,0.074c0.14,0.094,0.284,0.179,0.438,0.246
					c0.499,0.221,1.018,0.305,1.559,0.242c0.233-0.027,0.456-0.09,0.658-0.216c0.206-0.128,0.356-0.303,0.437-0.534
					c0.063-0.177,0.085-0.357,0.07-0.545c-0.009-0.118-0.03-0.23-0.079-0.338c-0.104-0.226-0.289-0.371-0.503-0.481
					c-0.243-0.126-0.508-0.198-0.769-0.277c-0.141-0.042-0.283-0.081-0.413-0.154c-0.055-0.032-0.101-0.075-0.101-0.143
					c0-0.067,0.047-0.104,0.103-0.133c0.046-0.023,0.094-0.03,0.144-0.033c0.181-0.01,0.353,0.034,0.523,0.084
					c0.189,0.056,0.367,0.139,0.543,0.23c0.028,0.015,0.047,0.021,0.067-0.016c0.12-0.226,0.245-0.449,0.364-0.676
					c0.067-0.128,0.072-0.104-0.052-0.173c-0.43-0.24-0.894-0.358-1.44-0.356c-0.018-0.001-0.037-0.001-0.056-0.001
					C27.45,1.836,27.247,1.872,27.049,1.942"/>
			</defs>
			<clipPath id="SVGID_20_">
				<use xlink:href="#SVGID_19_"  overflow="visible"/>
			</clipPath>
			
				<linearGradient id="SVGID_21_" gradientUnits="userSpaceOnUse" x1="-1358.9214" y1="-430.2095" x2="-1358.9071" y2="-430.2095" gradientTransform="matrix(2582.9087 -575.9796 575.9796 2582.9087 3757763.5 328487.9688)">
				<stop  offset="0" style="stop-color:#F8AA14"/>
				<stop  offset="0.5223" style="stop-color:#F6A019"/>
				<stop  offset="1" style="stop-color:#EF781C"/>
			</linearGradient>
			<polygon clip-path="url(#SVGID_20_)" fill="url(#SVGID_21_)" points="25.274,2.017 29.151,1.152 30.116,5.479 26.239,6.345 			
				"/>
		</g>
	</g>
	<g>
		<g>
			<defs>
				<path id="SVGID_22_" d="M14.92,1.074c0.002,0.256,0,0.514,0.002,0.77c0,0.051-0.016,0.067-0.065,0.065
					c-0.056-0.002-0.112-0.001-0.168-0.001c-0.046,0-0.091,0-0.137,0c-0.042,0-0.057,0.014-0.057,0.057
					c0.001,0.311,0.001,0.621,0,0.932c0,0.043,0.016,0.057,0.057,0.056c0.045-0.001,0.09,0,0.135,0c0.057,0,0.113,0,0.169-0.001
					c0.051-0.002,0.066,0.015,0.065,0.065c-0.002,0.256-0.001,0.514-0.001,0.771c0,0.24,0,0.479,0,0.718
					c0,0.103,0.014,0.202,0.036,0.301c0.055,0.259,0.176,0.478,0.403,0.622c0.193,0.122,0.412,0.171,0.637,0.18
					c0.127,0.005,0.256,0.006,0.384-0.009c0.209-0.022,0.408-0.076,0.599-0.164c0.04-0.018,0.056-0.045,0.056-0.09
					c-0.002-0.297,0-0.594-0.001-0.891c0-0.065-0.007-0.068-0.065-0.043c-0.14,0.062-0.283,0.099-0.438,0.098
					c-0.226-0.001-0.322-0.121-0.325-0.327c-0.004-0.386,0-0.771-0.002-1.156c0-0.057,0.013-0.076,0.073-0.075
					c0.23,0.003,0.46,0.001,0.69,0.001c0.078,0,0.078,0,0.078-0.08c0-0.293,0-0.587,0-0.88c0-0.083,0-0.083-0.081-0.083
					c-0.121,0-0.242,0-0.362,0c-0.107,0-0.215,0-0.322,0c-0.074,0-0.074,0-0.075-0.077c0-0.255-0.001-0.51,0.001-0.765
					c0-0.054-0.017-0.068-0.069-0.068C15.756,1,15.375,1,14.994,0.998c0,0-0.001,0-0.002,0C14.934,0.998,14.92,1.018,14.92,1.074"/>
			</defs>
			<clipPath id="SVGID_23_">
				<use xlink:href="#SVGID_22_"  overflow="visible"/>
			</clipPath>
			
				<linearGradient id="SVGID_24_" gradientUnits="userSpaceOnUse" x1="-1358.9214" y1="-430.126" x2="-1358.9073" y2="-430.126" gradientTransform="matrix(2582.9087 -575.9796 575.9796 2582.9087 3757715.5 328269.9688)">
				<stop  offset="0" style="stop-color:#F8AA14"/>
				<stop  offset="0.5223" style="stop-color:#F6A019"/>
				<stop  offset="1" style="stop-color:#EF781C"/>
			</linearGradient>
			<polygon clip-path="url(#SVGID_23_)" fill="url(#SVGID_24_)" points="13.515,1.217 16.925,0.456 18.027,5.395 14.616,6.155 			
				"/>
		</g>
	</g>
	<g>
		<g>
			<defs>
				<path id="SVGID_25_" d="M32.016,1.074c0.003,0.259,0,0.518,0.002,0.776c0,0.046-0.015,0.061-0.06,0.06
					c-0.055-0.001-0.109-0.001-0.164-0.001c-0.049,0-0.098,0-0.146,0c-0.042,0-0.057,0.014-0.057,0.056
					c0.001,0.311,0.001,0.621,0,0.931c0,0.042,0.014,0.059,0.057,0.057c0.046-0.001,0.092,0,0.138,0c0.056,0,0.111,0,0.167-0.001
					c0.05-0.001,0.066,0.013,0.065,0.064c-0.002,0.253-0.001,0.506-0.001,0.759c0,0.228,0,0.457,0.001,0.684
					c0,0.183,0.024,0.362,0.092,0.533c0.056,0.142,0.137,0.27,0.255,0.368c0.209,0.173,0.461,0.232,0.724,0.247
					c0.128,0.007,0.256,0.006,0.385-0.008c0.211-0.021,0.411-0.075,0.604-0.164c0.04-0.019,0.056-0.042,0.056-0.088
					c-0.003-0.295-0.001-0.59-0.001-0.885c0-0.073-0.007-0.076-0.075-0.046c-0.151,0.067-0.309,0.104-0.474,0.091
					c-0.113-0.01-0.207-0.056-0.25-0.17c-0.02-0.054-0.029-0.111-0.029-0.168c-0.002-0.386,0-0.771-0.002-1.156
					c0-0.047,0.015-0.063,0.063-0.063c0.112,0.001,0.225,0.001,0.338,0.001c0.122,0,0.246,0,0.369,0.001
					c0.054,0,0.073-0.014,0.072-0.07c-0.002-0.301-0.002-0.602,0-0.903c0-0.055-0.015-0.073-0.07-0.072
					c-0.229,0.002-0.456,0.001-0.685,0.001c-0.086,0-0.086,0-0.086-0.083c0-0.251-0.002-0.502,0.001-0.753
					c0.001-0.059-0.019-0.074-0.075-0.074C32.848,1,32.469,1,32.09,0.998c-0.001,0-0.002,0-0.002,0
					C32.029,0.998,32.015,1.018,32.016,1.074"/>
			</defs>
			<clipPath id="SVGID_26_">
				<use xlink:href="#SVGID_25_"  overflow="visible"/>
			</clipPath>
			
				<linearGradient id="SVGID_27_" gradientUnits="userSpaceOnUse" x1="-1358.918" y1="-430.228" x2="-1358.908" y2="-430.228" gradientTransform="matrix(2582.9087 -575.9796 575.9796 2582.9087 3757771.5 328535.9688)">
				<stop  offset="0" style="stop-color:#F8AA14"/>
				<stop  offset="0.5223" style="stop-color:#F6A019"/>
				<stop  offset="1" style="stop-color:#EF781C"/>
			</linearGradient>
			<polygon clip-path="url(#SVGID_26_)" fill="url(#SVGID_27_)" points="30.609,1.217 34.022,0.456 35.124,5.396 31.711,6.156 			
				"/>
		</g>
	</g>
	<g>
		<g>
			<defs>
				<path id="SVGID_28_" d="M31.031,1.907c-0.379,0.002-0.759,0.002-1.139,0c-0.059,0-0.074,0.017-0.073,0.074
					c0.001,1.162,0.001,2.323,0,3.485c-0.001,0.058,0.015,0.075,0.073,0.074C30.17,5.54,30.447,5.54,30.725,5.54
					c0.101,0,0.201,0,0.302,0c0.078,0,0.078,0,0.078-0.079c0.001-0.577,0.001-1.154,0.001-1.731c0-0.583-0.001-1.166,0.001-1.748
					c0-0.057-0.016-0.075-0.073-0.075C31.032,1.907,31.032,1.907,31.031,1.907"/>
			</defs>
			<clipPath id="SVGID_29_">
				<use xlink:href="#SVGID_28_"  overflow="visible"/>
			</clipPath>
			
				<linearGradient id="SVGID_30_" gradientUnits="userSpaceOnUse" x1="-1358.9238" y1="-430.2246" x2="-1358.9066" y2="-430.2246" gradientTransform="matrix(2582.9087 -575.9796 575.9796 2582.9087 3757771.5 328529.9688)">
				<stop  offset="0" style="stop-color:#F8AA14"/>
				<stop  offset="0.5223" style="stop-color:#F6A019"/>
				<stop  offset="1" style="stop-color:#EF781C"/>
			</linearGradient>
			<polygon clip-path="url(#SVGID_29_)" fill="url(#SVGID_30_)" points="29.046,2.079 31.045,1.633 31.878,5.369 29.88,5.815 			"/>
		</g>
	</g>
	<g>
		<g>
			<defs>
				<path id="SVGID_31_" d="M29.796,0.71c0.002,0.276,0.002,0.552,0,0.828c-0.001,0.053,0.016,0.069,0.068,0.069
					c0.201-0.003,0.402-0.001,0.604-0.001s0.402-0.001,0.604,0.001c0.052,0,0.068-0.017,0.068-0.069
					c-0.003-0.276-0.003-0.552,0-0.828c0-0.053-0.018-0.068-0.069-0.068c-0.402,0.002-0.805,0.002-1.207,0h-0.001
					C29.812,0.642,29.795,0.658,29.796,0.71"/>
			</defs>
			<clipPath id="SVGID_32_">
				<use xlink:href="#SVGID_31_"  overflow="visible"/>
			</clipPath>
			
				<linearGradient id="SVGID_33_" gradientUnits="userSpaceOnUse" x1="-1358.918" y1="-430.1563" x2="-1358.9084" y2="-430.1563" gradientTransform="matrix(2582.9087 -575.9796 575.9796 2582.9087 3757731.5 328347.9688)">
				<stop  offset="0" style="stop-color:#F8AA14"/>
				<stop  offset="0.5223" style="stop-color:#F6A019"/>
				<stop  offset="1" style="stop-color:#EF781C"/>
			</linearGradient>
			<polygon clip-path="url(#SVGID_32_)" fill="url(#SVGID_33_)" points="29.59,0.688 31.077,0.356 31.346,1.562 29.859,1.893 			"/>
		</g>
	</g>
</g>
</svg>
